<?xml version="1.0"?>
<svg width="768" height="768" xmlns="http://www.w3.org/2000/svg" xmlns:svg="http://www.w3.org/2000/svg" version="1.1">
 <title id="titleID">Design an SVG logo for a personal toolkit website. The logo should primarily feature shades of blue and visually represent a blend of technology, code, and knowledge. It needs to be clean, modern, and versatile, symbolizing a hub for AI, open-source projects, and a knowledge base.</title>
 <desc id="descID">AI-generated SVG illustration: Design an SVG logo for a personal toolkit website. The logo should primarily feature shades of blue and visually represent a blend of technology, code, and knowledge. It needs to be clean, modern, and versatile, symbolizing a hub for AI, open-source projects, and a knowledge base., created on https://svgstud.io</desc>
 <metadata>Created by https://svgstud.io and licensed under CC-BY-SA 4.0 license. Please attribute https://svgstud.io</metadata>
 <metadata>Design an SVG logo for a personal toolkit website. The logo should primarily feature shades of blue and visually represent a blend of technology, code, and knowledge. It needs to be clean, modern, and versatile, symbolizing a hub for AI, open-source projects, and a knowledge base.</metadata>
 <metadata>7</metadata>
 <metadata>https://svgstud.io</metadata>
 <metadata id="uid">e1ca7b9daabf0bd29101b198e85f7f5eb6915341d5583af12cb7b8423c162cbe</metadata>
 <g class="layer">
  <title>Layer 1</title>
  <path d="m640.5,662.48c-4.72,0.28 -10.87,-0.09 -15,-0.91c-3.85,-0.75 -8.75,-2.12 -10.89,-3.04c-2.13,-0.92 -6.74,-3.48 -10.24,-5.69c-3.5,-2.2 -8.86,-6.78 -11.93,-10.17c-3.06,-3.38 -7.12,-9.31 -9.02,-13.16c-1.9,-3.86 -3.9,-9.71 -4.43,-13.01c-0.54,-3.3 -0.98,-11.43 -0.98,-18.07c-0.01,-12.08 -0.01,-12.08 -5.26,-18.09c-2.89,-3.31 -8.39,-9.47 -12.23,-13.68c-3.84,-4.21 -7.72,-7.66 -8.62,-7.66c-0.91,0 -4.52,2.56 -8.02,5.69c-3.51,3.13 -9.88,8.28 -14.16,11.46c-4.28,3.17 -11.93,8.34 -17,11.48c-5.07,3.14 -14.17,8.09 -20.22,11c-6.05,2.91 -15.5,6.92 -21,8.9c-5.5,1.99 -16.07,5.15 -23.5,7.02c-7.43,1.87 -17.55,4.08 -22.5,4.9c-4.95,0.82 -13.66,1.96 -19.36,2.52c-5.69,0.57 -15.82,1.03 -22.5,1.03c-6.68,0 -17.86,-0.67 -24.84,-1.48c-6.98,-0.82 -17.1,-2.43 -22.49,-3.59c-5.4,-1.15 -13.8,-3.2 -18.67,-4.56c-4.87,-1.35 -13.55,-4.23 -19.3,-6.38c-5.74,-2.16 -15.93,-6.61 -22.64,-9.9c-6.71,-3.29 -17.6,-9.53 -24.2,-13.87c-6.6,-4.34 -14.28,-9.71 -17.07,-11.94c-2.79,-2.22 -9.23,-7.92 -14.3,-12.66c-5.08,-4.74 -9.66,-8.62 -10.17,-8.62c-0.51,0 -6.55,6.74 -13.41,14.98c-6.87,8.24 -13.22,16.42 -14.13,18.17c-1.01,1.96 -2,7.65 -2.58,14.77c-0.51,6.37 -1.63,14.04 -2.48,17.04c-0.84,3 -2.68,7.71 -4.07,10.46c-1.39,2.75 -4.22,7.28 -6.28,10.07c-2.07,2.79 -5.35,6.48 -7.29,8.18c-1.94,1.71 -5.63,4.55 -8.2,6.31c-2.56,1.77 -8.19,4.5 -12.52,6.08c-4.33,1.58 -10.72,3.16 -14.2,3.52c-3.48,0.36 -9.7,0.14 -13.81,-0.47c-5.01,-0.76 -10.22,-2.46 -15.73,-5.16c-5.81,-2.85 -10.08,-5.88 -14.5,-10.3c-3.71,-3.71 -7.59,-8.89 -9.52,-12.71c-1.78,-3.54 -3.75,-9.14 -4.36,-12.44c-0.63,-3.4 -0.87,-10.33 -0.56,-16c0.3,-5.53 1.5,-13.35 2.69,-17.5c1.17,-4.12 3.26,-9.56 4.63,-12.08c1.37,-2.52 5.05,-7.76 8.18,-11.65c3.12,-3.89 9.28,-11.31 13.68,-16.5c4.4,-5.18 14.08,-16.54 21.5,-25.23c7.42,-8.69 14.4,-16.97 15.5,-18.4c1.1,-1.44 8.41,-10 16.25,-19.04c9.67,-11.15 14.25,-17.2 14.25,-18.8c0,-1.3 -1.58,-8.58 -3.5,-16.17c-1.93,-7.6 -4.27,-18.5 -5.21,-24.22c-1.25,-7.64 -1.7,-16.26 -1.67,-32.41c0.02,-15.72 0.53,-25.28 1.78,-33.5c0.96,-6.32 2.65,-15.71 3.75,-20.85c1.1,-5.14 3.99,-15.16 6.43,-22.27c2.43,-7.11 6.37,-17.09 8.75,-22.19c2.39,-5.09 7.33,-14.04 11,-19.89c3.67,-5.84 6.66,-11 6.64,-11.46c-0.02,-0.46 -3.55,-4.55 -7.85,-9.09c-7.83,-8.25 -7.83,-8.25 -16.32,-8.25c-7.95,0 -8.79,-0.21 -12.9,-3.17c-2.42,-1.74 -15.33,-14.15 -28.7,-27.59c-13.36,-13.43 -25.39,-26.08 -26.73,-28.1c-1.34,-2.03 -3.38,-7.28 -4.54,-11.66c-1.4,-5.31 -2.28,-12.49 -2.64,-21.48c-0.43,-10.68 -0.2,-14.85 1.12,-19.97c0.91,-3.56 3.2,-9.63 5.09,-13.5c1.89,-3.87 5.21,-8.93 7.39,-11.24c2.18,-2.32 5.11,-4.5 6.52,-4.86c1.83,-0.45 3.92,0.16 7.32,2.15c2.63,1.53 9.89,7.76 16.15,13.85c6.26,6.09 15.08,15.35 19.61,20.57c4.53,5.22 18.83,20.62 31.77,34.22c12.95,13.6 24.51,26.29 25.7,28.21c1.18,1.92 2.24,5.4 2.35,7.74c0.14,3.21 -0.21,4.34 -1.42,4.59c-0.89,0.18 -3.59,-1.25 -6,-3.19c-2.42,-1.93 -7.09,-5.4 -10.39,-7.71c-3.3,-2.31 -9.41,-7.02 -13.59,-10.48c-5.67,-4.69 -8.12,-6.14 -9.71,-5.72c-1.69,0.44 -4.38,-1.65 -13.2,-10.25c-6.1,-5.94 -11.95,-12.21 -13.01,-13.92c-1.05,-1.71 -2.84,-7.05 -3.96,-11.86c-1.12,-4.81 -2.69,-10 -3.48,-11.54c-0.8,-1.54 -3.06,-4.21 -5.03,-5.94c-1.98,-1.73 -4.31,-3.15 -5.19,-3.15c-1.31,0 -1.48,0.76 -0.95,4.25c0.35,2.34 0.89,8.3 1.19,13.25c0.55,9 0.55,9 -2.46,5.59c-1.66,-1.87 -4.79,-7.04 -6.96,-11.5c-2.16,-4.45 -4.72,-9.99 -5.68,-12.31c-0.96,-2.33 -2.14,-3.99 -2.61,-3.69c-0.47,0.29 -0.86,4.75 -0.86,9.92c0,5.16 0.69,14.7 1.54,21.19c0.88,6.71 2.39,13.56 3.5,15.87c1.08,2.24 4.34,6.52 7.23,9.5c2.9,2.99 12.76,12.74 21.92,21.68c9.17,8.94 17.15,16.25 17.74,16.25c0.59,0 1.07,-1.49 1.07,-3.31c0,-1.81 -0.95,-6.11 -2.11,-9.55c-1.16,-3.44 -1.87,-6.5 -1.57,-6.8c0.3,-0.3 1.47,0.1 2.59,0.88c1.12,0.79 10.21,9.26 20.21,18.84c18.16,17.4 18.16,17.4 19.77,14.92c0.89,-1.36 5.16,-6.45 9.49,-11.31c4.34,-4.86 11.63,-12.1 16.2,-16.1c4.57,-4 12.5,-10.43 17.62,-14.29c5.11,-3.86 13.52,-9.58 18.67,-12.7c5.15,-3.12 13.7,-7.85 19,-10.5c5.3,-2.66 15.03,-6.97 21.63,-9.58c6.6,-2.62 18.8,-6.48 27.11,-8.57c8.31,-2.1 20.24,-4.62 26.5,-5.59c8.4,-1.3 17.56,-1.77 34.89,-1.8c17.91,-0.03 26.2,0.39 34.86,1.76c6.25,0.99 17.27,3.3 24.5,5.13c7.23,1.82 17.64,5 23.14,7.06c5.5,2.06 14.6,5.9 20.23,8.55c5.63,2.64 14.18,7.17 19,10.06c4.82,2.89 9.75,5.89 10.95,6.65c1.92,1.23 2.41,1.16 4.09,-0.52c1.04,-1.04 2.88,-5.78 4.07,-10.53c1.18,-4.74 3.1,-11.13 4.25,-14.2c1.15,-3.07 4.31,-8.38 7.03,-11.79c2.72,-3.42 8.65,-9.5 13.16,-13.53c4.52,-4.02 10.14,-8.45 12.49,-9.85c2.99,-1.78 5.02,-2.35 6.81,-1.9c1.65,0.42 3.06,1.85 3.99,4.07c0.78,1.89 1.43,4.39 1.43,5.55c0,1.16 0.41,1.97 0.91,1.78c0.51,-0.18 7.93,-7.06 16.5,-15.28c8.57,-8.22 16.95,-15.81 18.63,-16.87c2.26,-1.44 4.24,-1.81 7.75,-1.47c2.59,0.25 6.4,1.25 8.46,2.23c2.06,0.98 5.08,3.61 6.72,5.83c1.64,2.23 4.15,7.12 5.58,10.87c1.65,4.31 3.68,7.65 5.51,9.09c1.6,1.25 4.28,3.33 5.96,4.62c1.67,1.3 3.88,4 4.9,6c1.01,2.01 2.6,7.25 3.51,11.65c0.92,4.4 1.92,13.4 2.22,20c0.46,10.15 0.24,12.94 -1.4,18.1c-1.07,3.36 -3.6,8.59 -5.61,11.62c-2.01,3.03 -7.07,9.51 -11.24,14.4c-4.17,4.88 -11.21,12.63 -15.64,17.22c-4.44,4.58 -9.73,9.38 -11.76,10.66c-2.04,1.28 -9.36,4 -16.27,6.03c-6.92,2.03 -13.96,4.54 -15.65,5.57c-1.7,1.03 -3.08,2.61 -3.08,3.51c0,0.9 3.53,6.93 7.85,13.4c4.31,6.47 10.35,16.88 13.41,23.13c3.06,6.25 7.34,16.54 9.52,22.86c2.17,6.32 5.13,16.45 6.57,22.5c1.44,6.05 3.3,16.85 4.13,23.99c0.84,7.15 1.52,18.88 1.52,26.08c0,7.2 -0.48,18 -1.06,24.01c-0.59,6 -2.18,16.49 -3.53,23.29c-1.36,6.8 -3.77,16.25 -5.35,21c-1.59,4.75 -4.05,11.67 -5.46,15.38c-1.42,3.72 -4.84,11.25 -7.59,16.74c-2.76,5.48 -5.01,10.49 -5.01,11.12c0,0.64 4.84,6.35 10.75,12.69c5.91,6.34 22.95,23.78 37.87,38.75c14.91,14.96 28.56,29.3 30.32,31.86c1.76,2.56 4.27,7 5.59,9.87c1.31,2.87 2.88,8.44 3.49,12.38c0.77,5 0.8,9.36 0.1,14.41c-0.61,4.45 -2.23,9.75 -4.19,13.73c-2.01,4.09 -5.64,8.93 -9.81,13.11c-3.64,3.65 -9,7.9 -11.9,9.44c-2.91,1.55 -8.31,3.68 -12,4.74c-3.7,1.06 -10.32,2.13 -14.72,2.39zm-2,-24.77c6.45,-0.24 10.33,-0.93 13.72,-2.45c2.59,-1.17 6.93,-4.19 9.64,-6.73c2.87,-2.68 5.83,-6.71 7.1,-9.66c1.55,-3.6 2.17,-7.05 2.16,-11.97c-0.02,-4.38 -0.65,-8.26 -1.75,-10.65c-0.96,-2.06 -7.86,-9.83 -15.35,-17.25c-7.48,-7.42 -26.42,-25.88 -42.07,-41c-15.66,-15.12 -31.05,-29.83 -34.21,-32.68c-3.16,-2.84 -5.74,-5.81 -5.74,-6.59c0,-0.78 1.7,-4.08 3.79,-7.32c2.08,-3.25 5,-8.01 6.48,-10.57c1.49,-2.56 4.47,-8.18 6.62,-12.5c2.15,-4.31 5.56,-12.57 7.58,-18.34c2.01,-5.77 4.76,-15.87 6.11,-22.44c1.34,-6.56 2.94,-17.36 3.56,-24c0.61,-6.63 0.86,-18.58 0.54,-26.56c-0.31,-7.98 -1.47,-19.68 -2.58,-26c-1.1,-6.32 -3.4,-16.34 -5.11,-22.25c-1.7,-5.92 -4.62,-14.54 -6.49,-19.17c-1.86,-4.63 -4.78,-11.18 -6.48,-14.55c-1.7,-3.36 -3.79,-6.39 -4.65,-6.72c-1.07,-0.41 -5.41,3.25 -13.96,11.78c-7.89,7.87 -12.41,13.13 -12.41,14.45c0,1.14 1.59,6.77 3.53,12.51c1.94,5.75 4.69,16.07 6.11,22.95c2.16,10.5 2.57,15.21 2.6,29.5c0.02,11.61 -0.49,19.69 -1.6,25.5c-0.89,4.68 -2.79,12.1 -4.23,16.5c-1.43,4.4 -4.32,11.6 -6.42,16c-2.1,4.4 -6.04,11.38 -8.77,15.5c-2.72,4.12 -8.04,10.98 -11.83,15.22c-3.79,4.25 -10.27,10.52 -14.39,13.94c-4.12,3.42 -11.55,8.84 -16.5,12.05c-4.95,3.22 -13.05,7.81 -18,10.22c-4.95,2.4 -13.5,6.04 -19,8.08c-5.5,2.04 -15.85,5.22 -23,7.05c-7.15,1.84 -18.4,4.12 -25,5.08c-7.76,1.11 -18.01,1.71 -29,1.69c-12.93,-0.02 -20.08,-0.56 -29.85,-2.25c-7.06,-1.22 -18.54,-4.02 -25.5,-6.22c-6.96,-2.2 -18.5,-6.89 -25.65,-10.42c-7.15,-3.53 -17.27,-9.45 -22.5,-13.15c-5.23,-3.71 -14.92,-12.15 -21.54,-18.76c-7.64,-7.64 -14.34,-15.48 -18.34,-21.48c-3.46,-5.19 -8,-12.84 -10.08,-17c-2.08,-4.15 -4.96,-10.82 -6.4,-14.82c-1.43,-3.99 -3.56,-11.87 -4.73,-17.5c-1.6,-7.73 -2.11,-13.78 -2.1,-24.73c0.02,-10.02 0.65,-18.05 2.05,-26c1.12,-6.32 3.41,-15.77 5.11,-21c1.69,-5.23 5.72,-14.9 8.95,-21.5c3.23,-6.6 8.51,-15.68 11.73,-20.18c3.22,-4.5 8.33,-11.19 11.35,-14.87c3.02,-3.69 10,-10.77 15.5,-15.74c5.5,-4.97 14.7,-12.14 20.45,-15.94c5.74,-3.8 14.64,-8.91 19.78,-11.36c5.14,-2.44 12.78,-5.6 16.98,-7.01c4.2,-1.41 12.85,-3.68 19.22,-5.04c8.4,-1.79 16.15,-2.63 28.29,-3.06c10.93,-0.39 19.95,-0.16 26,0.64c5.11,0.68 13.55,2.14 18.78,3.25c5.23,1.11 14.29,3.73 20.15,5.82c5.85,2.09 15.26,6.17 20.89,9.06c5.64,2.9 14.12,7.81 18.86,10.92c4.73,3.1 12.65,9.05 17.6,13.2c4.95,4.16 12.61,11.55 17.02,16.43c4.42,4.89 9.97,11.24 12.35,14.13c2.37,2.89 4.96,5.25 5.74,5.25c0.79,0 7.01,-5.29 13.82,-11.75c6.82,-6.46 13.4,-13.02 14.61,-14.57c1.84,-2.34 2.02,-3.2 1.08,-5c-0.62,-1.2 -3.16,-5.02 -5.63,-8.49c-3.25,-4.58 -4.49,-7.28 -4.49,-9.8c0,-1.92 0.63,-4.7 1.4,-6.19c0.78,-1.48 2.5,-3.71 3.82,-4.95c1.33,-1.24 6,-3.57 10.38,-5.16c4.38,-1.6 14.25,-4.58 21.93,-6.61c7.69,-2.04 15.59,-4.53 17.57,-5.53c1.97,-1.01 7.86,-6.47 13.08,-12.14c5.22,-5.67 11.57,-12.89 14.11,-16.05c2.62,-3.24 5.33,-8.02 6.25,-11c1.08,-3.48 1.82,-10.72 2.18,-21.37c0.37,-10.9 0.21,-16.32 -0.52,-16.76c-0.6,-0.38 -3.57,2.67 -6.8,6.97c-3.16,4.19 -14.3,16.38 -24.75,27.08c-10.46,10.7 -20.26,20.1 -21.78,20.89c-1.52,0.79 -4.34,1.43 -6.26,1.43c-1.91,0 -4.64,-0.44 -6.06,-0.98c-1.42,-0.54 -3.04,-2.18 -3.59,-3.63c-0.56,-1.46 -0.73,-3.53 -0.4,-4.59c0.34,-1.06 12.51,-13.72 27.05,-28.12c26.43,-26.18 26.43,-26.18 26.41,-33.29c-0.01,-3.91 -0.31,-9.2 -0.66,-11.75c-0.35,-2.55 -1.04,-4.64 -1.53,-4.64c-0.5,0 -1.8,2.14 -2.9,4.75c-1.54,3.65 -6.2,8.89 -20.21,22.68c-10.02,9.86 -21.99,21.23 -26.61,25.27c-4.61,4.03 -9.45,7.6 -10.75,7.92c-1.29,0.33 -3.03,0.34 -3.86,0.02c-1.1,-0.42 -1.49,-2.12 -1.48,-6.36c0.02,-3.18 0.43,-7.51 0.92,-9.62c0.63,-2.73 2.88,-5.89 7.82,-11c3.81,-3.94 7.43,-8.1 8.04,-9.26c0.86,-1.62 0.77,-2.58 -0.4,-4.25c-0.83,-1.18 -2.43,-2.15 -3.55,-2.15c-1.15,0 -5.87,3.5 -10.84,8.05c-6.25,5.71 -9.39,9.4 -10.82,12.75c-1.1,2.58 -2.72,8.52 -3.59,13.2c-0.88,4.68 -2.28,12.73 -3.12,17.91c-0.84,5.17 -2.27,10.95 -3.16,12.83c-0.9,1.89 -3.44,4.64 -5.65,6.1c-3.28,2.16 -5.15,2.65 -10.1,2.62c-5.64,-0.04 -6.92,-0.52 -18.07,-6.91c-6.6,-3.77 -16.12,-8.78 -21.15,-11.13c-5.03,-2.34 -13.36,-5.84 -18.5,-7.76c-5.14,-1.93 -14.53,-4.87 -20.85,-6.54c-6.32,-1.67 -15.62,-3.73 -20.66,-4.59c-5.04,-0.86 -15.16,-1.95 -22.5,-2.44c-7.69,-0.5 -19.02,-0.5 -26.74,0.01c-7.36,0.49 -17.45,1.59 -22.4,2.45c-4.96,0.86 -14.1,2.88 -20.32,4.48c-6.22,1.6 -15.03,4.34 -19.59,6.08c-4.56,1.75 -13.72,5.74 -20.35,8.87c-6.64,3.14 -18.57,10 -26.5,15.26c-7.94,5.26 -18.96,13.37 -24.49,18.02c-5.52,4.66 -10.85,9.7 -11.84,11.21c-0.98,1.5 -2.17,5.41 -2.63,8.68c-0.48,3.41 -1.95,7.73 -3.45,10.14c-1.43,2.32 -4.87,6.91 -7.64,10.21c-2.77,3.3 -7.41,9.6 -10.3,14c-2.9,4.4 -7.33,11.82 -9.85,16.5c-2.52,4.68 -6.15,12.32 -8.07,17c-1.92,4.68 -4.84,12.77 -6.5,18c-1.66,5.23 -3.93,13.55 -5.05,18.5c-1.13,4.95 -2.74,14.31 -3.58,20.8c-0.85,6.49 -1.54,17.91 -1.54,25.37c0,7.47 0.7,18.36 1.55,24.2c0.85,5.85 2.89,15.81 4.52,22.13c1.63,6.32 3.73,14.29 4.66,17.69c1.56,5.68 1.57,6.46 0.11,9.5c-0.87,1.82 -5.15,7.36 -9.51,12.31c-4.35,4.95 -11.72,13.54 -16.37,19.09c-4.66,5.55 -19.49,23.03 -32.96,38.83c-13.47,15.81 -28.03,32.86 -32.35,37.91c-4.31,5.04 -8.87,11.19 -10.12,13.67c-1.26,2.48 -2.79,6.88 -3.41,9.8c-0.61,2.91 -1.12,7.25 -1.12,9.63c0,2.39 0.76,6.7 1.69,9.59c1.09,3.36 3.44,7.15 6.56,10.57c2.76,3.02 7.12,6.4 10.06,7.81c2.85,1.36 7.67,2.77 10.71,3.13c3.03,0.35 8.4,0.12 11.93,-0.52c3.53,-0.64 8.92,-2.43 11.98,-3.98c3.14,-1.59 8.1,-5.46 11.36,-8.89c3.19,-3.34 6.92,-8.54 8.29,-11.54c1.95,-4.25 2.72,-8.19 3.47,-17.78c0.53,-6.78 1.46,-14.12 2.06,-16.32c0.6,-2.2 2.25,-5.58 3.68,-7.5c1.43,-1.92 6,-7.49 10.15,-12.36c4.16,-4.87 13.07,-15.45 19.8,-23.5c6.73,-8.05 12.25,-15.44 12.25,-16.42c0.01,-0.98 0.69,-2.05 1.53,-2.37c1.04,-0.39 5.6,3.57 14.25,12.37c7,7.12 16.33,15.79 20.73,19.28c4.4,3.48 12.05,9.02 17,12.3c4.95,3.28 15.62,9.22 23.72,13.21c8.09,3.98 20.92,9.3 28.5,11.82c7.58,2.51 17.86,5.48 22.85,6.58c4.99,1.11 14.35,2.71 20.8,3.55c6.45,0.85 18.55,1.54 26.89,1.54c8.34,0 21.03,-0.71 28.2,-1.58c7.17,-0.87 20.69,-3.52 30.04,-5.9c9.35,-2.37 21.27,-5.99 26.5,-8.05c5.23,-2.06 13.96,-5.97 19.42,-8.7c5.45,-2.73 13.43,-7.14 17.72,-9.8c4.29,-2.66 11.53,-7.65 16.08,-11.1c4.55,-3.44 11.28,-9.13 14.94,-12.64c4.26,-4.08 7.43,-8.16 8.78,-11.31c2.09,-4.86 2.15,-4.91 4.51,-3.36c1.31,0.86 12.14,11.77 24.06,24.25c11.93,12.48 22.86,24.7 24.31,27.16c2.13,3.62 2.62,5.72 2.6,11c-0.02,3.59 -0.22,11.26 -0.45,17.03c-0.37,9.12 -0.14,11.11 1.69,15.12c1.16,2.54 3.73,6.42 5.71,8.6c1.98,2.19 5.32,5.18 7.43,6.64c2.11,1.47 6.28,3.57 9.27,4.67c4.31,1.6 7.29,1.94 14.43,1.68zm-523.22,-22.71c-2.08,-0.01 -5.17,-0.86 -6.87,-1.89c-1.7,-1.04 -4.06,-3.12 -5.25,-4.63c-1.61,-2.05 -2.16,-4.13 -2.16,-8.15c0,-3.4 0.73,-6.84 1.96,-9.24c1.07,-2.11 3.36,-5.02 5.07,-6.46c1.72,-1.45 3.51,-2.63 3.97,-2.63c0.47,0 2.55,-2.8 4.63,-6.21c2.07,-3.42 8.29,-11.62 13.82,-18.22c5.53,-6.61 12.98,-15.46 16.55,-19.67c3.57,-4.21 13.25,-15.64 21.5,-25.39c8.25,-9.76 16.02,-18.92 17.26,-20.37c1.93,-2.24 2.42,-2.41 3.29,-1.14c0.57,0.82 2.08,3.52 3.36,6c1.28,2.48 2.63,5.47 3,6.66c0.55,1.78 -4.2,7.9 -27.49,35.42c-15.49,18.29 -29.45,35.05 -31.03,37.23c-2.78,3.84 -2.86,4.27 -2.25,12.16c0.42,5.48 0.21,9.44 -0.63,11.99c-0.69,2.09 -2.88,5.61 -4.88,7.82c-2,2.22 -5.08,4.63 -6.85,5.37c-1.77,0.74 -4.92,1.35 -7,1.35zm517.2,-2c-2.2,0 -5.56,-0.83 -7.46,-1.85c-1.9,-1.02 -4.37,-3.08 -5.49,-4.58c-1.51,-2.02 -2.01,-4.19 -1.97,-8.4c0.03,-3.35 0.77,-7.02 1.8,-8.96c0.95,-1.82 3.18,-4.18 4.94,-5.25c1.92,-1.17 4.99,-1.95 7.7,-1.95c2.77,0 5.63,0.75 7.44,1.94c1.62,1.07 3.98,3.65 5.25,5.75c1.49,2.47 2.3,5.37 2.3,8.3c0,2.73 -0.78,5.78 -1.98,7.76c-1.1,1.79 -3.46,4.15 -5.25,5.25c-1.82,1.1 -5.03,1.98 -7.28,1.99zm-242.48,-47.57c-9.07,0.22 -18.07,0.21 -20,-0.03c-1.93,-0.23 -7.32,-0.89 -12,-1.47c-4.68,-0.58 -13.59,-2.19 -19.82,-3.58c-6.23,-1.39 -15.9,-4.03 -21.5,-5.86c-5.6,-1.84 -14,-4.98 -18.68,-6.98c-4.68,-2 -12.1,-5.69 -16.5,-8.2c-4.4,-2.52 -12.27,-7.61 -17.5,-11.32c-5.23,-3.72 -14.22,-11.26 -20,-16.76c-5.78,-5.5 -11.28,-11.34 -12.23,-12.98c-1.69,-2.93 -1.67,-3.05 1.24,-7.36c1.64,-2.42 3.82,-5.48 4.86,-6.8c1.88,-2.42 1.88,-2.42 14.33,9.5c6.85,6.55 16.69,14.94 21.87,18.64c5.19,3.71 15.28,9.65 22.43,13.2c7.15,3.55 17.73,8.09 23.5,10.08c5.77,1.99 15,4.67 20.5,5.96c5.5,1.28 14.05,2.94 19,3.67c5.19,0.78 17.03,1.33 28,1.3c12.88,-0.02 22.54,-0.59 30,-1.76c6.05,-0.95 16.13,-3.09 22.4,-4.76c6.27,-1.66 16.4,-4.86 22.5,-7.1c6.11,-2.24 16.28,-6.68 22.6,-9.86c6.32,-3.18 14.63,-7.81 18.47,-10.3c3.83,-2.48 7.35,-4.27 7.84,-3.97c0.48,0.3 0.55,3.75 0.16,7.67c-0.4,3.93 -1.1,8.14 -1.56,9.37c-0.46,1.22 -3.67,4.31 -7.13,6.86c-3.45,2.55 -11.68,7.25 -18.28,10.43c-6.6,3.19 -16.73,7.44 -22.5,9.46c-5.77,2.01 -15.9,4.95 -22.5,6.53c-6.6,1.57 -16.73,3.58 -22.5,4.45c-5.77,0.87 -17.93,1.76 -27,1.97zm-5,-80.05c2.48,-0.27 6.75,-1.2 9.5,-2.08c2.75,-0.87 15.83,-6.2 29.06,-11.84c13.24,-5.64 27.67,-12.06 32.06,-14.27c4.4,-2.21 8.64,-4.8 9.44,-5.76c1.06,-1.28 1.53,-5.39 1.79,-15.58c0.23,-9.31 -0.01,-13.85 -0.72,-13.85c-0.58,0 -10.64,4.09 -22.35,9.1c-11.7,5 -26.68,11.26 -33.28,13.9c-6.6,2.65 -14.65,5.58 -17.9,6.52c-3.49,1.01 -7.8,1.52 -10.58,1.26c-2.89,-0.28 -9.64,-2.76 -17.6,-6.47c-7.11,-3.31 -23.27,-11.46 -35.91,-18.12c-12.73,-6.7 -23.38,-11.72 -23.85,-11.25c-0.47,0.47 -0.7,7.25 -0.51,15.07c0.35,14.21 0.35,14.21 3.73,17.03c1.85,1.55 11.75,7.3 22,12.78c10.24,5.49 24.14,12.73 30.9,16.1c6.75,3.37 13.95,6.53 16,7.04c2.04,0.5 5.74,0.69 8.22,0.42zm1.02,-47.74c3.37,-0.25 10.98,-2.45 19.5,-5.65c7.69,-2.88 24.09,-9.45 36.44,-14.61c12.35,-5.15 23.02,-9.94 23.7,-10.63c0.91,-0.91 1.44,-9.71 1.95,-32.5c0.39,-17.19 0.4,-31.25 0.02,-31.25c-0.37,0 -5.95,2.07 -12.4,4.59c-6.45,2.53 -16.46,6.4 -22.23,8.61c-5.77,2.22 -18.82,7.14 -29,10.95c-10.18,3.81 -20.41,7.36 -22.75,7.89c-2.81,0.64 -5.82,0.62 -8.89,-0.07c-2.55,-0.57 -10.31,-3.55 -17.25,-6.61c-6.93,-3.06 -20.92,-9.58 -31.07,-14.49c-10.15,-4.91 -19.04,-8.7 -19.75,-8.43c-0.89,0.34 -1.29,2.76 -1.29,7.84c0,4.31 0.51,8.02 1.25,9c0.69,0.92 12.27,7.02 25.75,13.56c13.48,6.54 27.8,13.34 31.82,15.1c4.03,1.76 9.66,3.69 12.52,4.29c4.79,1 5.99,0.82 15.18,-2.23c5.49,-1.82 13.72,-4.82 18.29,-6.66c4.56,-1.84 8.73,-3.34 9.25,-3.34c0.52,0 0.93,2.14 0.93,4.75c-0.01,2.61 -0.28,5.73 -0.6,6.92c-0.37,1.37 -2.31,2.91 -5.31,4.2c-2.6,1.12 -10.32,4.14 -17.15,6.71c-9.26,3.47 -13.83,4.67 -17.93,4.68c-3.02,0 -7.52,-0.81 -10,-1.81c-2.48,-0.99 -16.88,-7.62 -32,-14.72c-15.12,-7.1 -28.29,-13.15 -29.25,-13.44c-1.58,-0.47 -1.75,0.36 -1.73,8.34c0,4.88 0.38,9.46 0.84,10.17c0.45,0.72 14.73,8.53 31.73,17.36c17,8.83 33.84,17.37 37.41,18.97c5.32,2.39 7.5,2.85 12.02,2.51zm39.93,-25.91c-3.47,0.47 -3.78,0.3 -4.31,-2.36c-0.31,-1.58 -0.69,-8.81 -0.85,-16.08c-0.16,-7.81 0.13,-13.6 0.72,-14.16c0.54,-0.53 3.88,-2.12 7.41,-3.54c3.53,-1.43 7.22,-2.59 8.19,-2.59c0.98,0 2.07,0.49 2.44,1.08c0.37,0.6 0.34,8.3 -0.06,17.11c-0.73,16.03 -0.73,16.03 -5.27,18.04c-2.49,1.1 -6.22,2.23 -8.27,2.5zm-48.74,-51.78c3.52,0.04 9.69,-1.85 24.5,-7.49c10.88,-4.15 29.35,-11.19 41.04,-15.65c11.69,-4.46 21.82,-8.79 22.5,-9.61c0.83,-1 1.36,-6.47 1.61,-16.35c0.19,-8.16 0.08,-15.97 -0.27,-17.35c-0.35,-1.37 -1.18,-2.5 -1.86,-2.5c-0.68,-0.01 -8.1,1.86 -16.5,4.14c-8.4,2.28 -15.6,3.82 -16,3.42c-0.4,-0.39 -0.88,-7.54 -1.06,-15.88c-0.2,-9.63 -0.75,-15.67 -1.49,-16.57c-0.97,-1.16 -4.27,-1.28 -19.17,-0.69c-9.91,0.4 -19.1,0.69 -20.43,0.65c-1.34,-0.04 -3.25,-0.82 -4.26,-1.73c-1.6,-1.45 -2.5,-1.51 -7.26,-0.44c-2.99,0.67 -6.59,2.12 -8,3.23c-2.52,1.98 -2.56,2.24 -2.62,15.69c-0.03,7.53 -0.37,15.48 -0.76,17.67c-0.44,2.46 -1.32,4.11 -2.3,4.3c-1.21,0.23 -1.75,-0.83 -2.24,-4.38c-0.35,-2.58 -0.64,-7.33 -0.64,-10.55c0,-3.22 -0.38,-5.86 -0.85,-5.86c-0.47,0 -4.18,2.22 -8.25,4.93c-4.07,2.72 -8.97,6.57 -10.9,8.56c-3.5,3.62 -3.5,3.62 -3.83,23.06c-0.18,10.7 -0.68,19.45 -1.12,19.45c-0.44,0 -1.39,-0.7 -2.1,-1.56c-1.04,-1.25 -1.09,-4.68 -0.25,-17.25c0.57,-8.63 0.91,-15.84 0.76,-16.02c-0.15,-0.18 -5.05,-1.4 -10.89,-2.72c-5.83,-1.32 -11.53,-2.89 -12.65,-3.49c-1.12,-0.6 -1.86,-1.63 -1.65,-2.28c0.22,-0.65 7.15,-3.89 15.4,-7.21c8.25,-3.31 16.19,-6.81 17.65,-7.76c1.46,-0.96 3.5,-3.42 4.53,-5.47c1.03,-2.06 2.42,-5.41 3.08,-7.46c0.66,-2.04 2.5,-4.8 4.08,-6.14c2.1,-1.76 7.45,-3.54 19.69,-6.53c9.24,-2.27 18.94,-4.11 21.55,-4.11c2.61,0 4.75,0.44 4.75,0.97c0,0.54 1.24,1.6 2.75,2.37c1.51,0.76 7.13,1.64 12.48,1.94c5.82,0.33 11.01,1.19 12.91,2.14c1.74,0.87 3.32,1.58 3.51,1.58c0.19,0 0.35,-0.48 0.35,-1.06c0,-0.58 -1.91,-1.89 -4.25,-2.92c-2.34,-1.03 -7.49,-2.31 -11.45,-2.85c-5.82,-0.8 -7.99,-1.63 -11.35,-4.33c-3.81,-3.06 -4.73,-3.33 -10.81,-3.28c-4.12,0.04 -12.33,1.47 -21.64,3.77c-8.25,2.05 -17.07,4.4 -19.61,5.23c-2.53,0.83 -5.51,2.5 -6.62,3.72c-1.11,1.22 -3.02,5.27 -4.24,9.01c-1.34,4.11 -3.07,7.34 -4.37,8.19c-1.19,0.77 -6.4,3.02 -11.59,5c-5.19,1.98 -11.64,4.79 -14.34,6.26c-2.69,1.47 -5.98,3.96 -7.31,5.54c-2.34,2.77 -2.42,3.43 -2.42,18.64c0,13.76 0.22,15.97 1.75,17.31c0.96,0.85 5.44,3.39 9.94,5.64c4.51,2.25 17.33,8.1 28.5,12.99c11.17,4.9 22.33,9.61 24.81,10.47c2.48,0.87 6.62,1.6 9.21,1.62zm68.79,-74.47c1.93,-0.25 4.96,-0.46 6.75,-0.47c1.79,-0.01 3.25,-0.44 3.25,-0.96c0,-0.53 -1.69,-1.44 -3.75,-2.02c-2.06,-0.59 -5.66,-1.35 -8,-1.69c-4.05,-0.58 -4.25,-0.49 -4.25,1.94c0,1.4 0.56,2.8 1.25,3.1c0.69,0.31 2.82,0.35 4.75,0.1zm92.1,-33.5c-0.88,0 -5.65,-3.22 -10.6,-7.15c-4.95,-3.93 -13.05,-9.82 -18,-13.09c-4.95,-3.27 -14.18,-8.55 -20.5,-11.73c-6.32,-3.17 -17.8,-8.13 -25.5,-11.01c-7.7,-2.89 -18.27,-6.31 -23.5,-7.6c-5.22,-1.29 -14.23,-3.14 -20,-4.1c-7.54,-1.25 -16.13,-1.74 -30.5,-1.74c-14.15,0 -23.36,0.52 -31.5,1.78c-6.32,0.98 -16.23,2.84 -22,4.14c-5.77,1.29 -14.77,3.73 -20,5.41c-5.23,1.69 -16.25,6.43 -24.5,10.54c-8.25,4.11 -17.81,9.11 -21.25,11.11c-5.61,3.27 -6.25,3.44 -6.25,1.7c0,-1.07 1.01,-3.04 2.25,-4.37c1.24,-1.33 5.25,-4.56 8.91,-7.17c3.66,-2.61 11.53,-7.56 17.5,-11c5.96,-3.45 14.44,-7.89 18.84,-9.87c4.4,-1.98 12.42,-5.02 17.83,-6.74c5.4,-1.72 16.43,-4.33 24.5,-5.8c12.98,-2.37 17.26,-2.68 37.17,-2.73c17.39,-0.05 25,0.36 33.5,1.78c6.05,1.01 16.85,3.33 24,5.16c7.15,1.83 18.18,5.33 24.52,7.79c6.33,2.45 15.29,6.35 19.9,8.67c4.61,2.32 12.48,6.73 17.48,9.8c5.01,3.06 12.7,8.38 17.1,11.81c4.4,3.43 9.76,8.05 11.9,10.28c2.94,3.05 3.89,4.83 3.82,7.2c-0.05,1.73 -0.87,4.01 -1.81,5.05c-0.95,1.05 -2.44,1.89 -3.31,1.88z" fill="#007fff" fill-rule="evenodd" id="svg_2"/>
 </g>
</svg>
